<svg width="566" height="142" viewBox="0 0 566 142" fill="none" xmlns="http://www.w3.org/2000/svg">
    <path d="M110.035 5.07629H4.86469C2.72629 5.07629 0.782227 7.0203 0.782227 9.1587V28.4043C0.782227 30.7371 2.72629 32.4867 4.86469 32.4867H110.035C124.809 32.4867 136.668 44.5395 136.668 59.3139V86.9187C136.668 101.693 124.809 113.746 110.035 113.746H28.1927V64.1739C28.1927 61.8411 26.443 60.0915 24.1103 60.0915H4.86469C2.72629 60.0915 0.782227 61.8411 0.782227 64.1739V137.074C0.782227 139.212 2.72629 141.156 4.86469 141.156H110.035C139.973 141.156 164.273 116.856 164.273 86.9187V59.3139C164.273 29.3763 139.973 5.07629 110.035 5.07629Z" fill="#F5FAF7"/>
    <path d="M197.587 63.3963V137.074C197.587 139.212 199.531 141.156 201.669 141.156H319.67C342.22 141.156 360.688 122.883 360.688 100.332C360.688 89.8347 356.606 80.3091 350.191 73.1163C356.606 65.9235 360.688 56.3979 360.688 45.9003C360.688 23.3499 342.22 5.07629 319.67 5.07629H201.669C199.336 5.07629 197.587 6.8259 197.587 9.1587V28.4043C197.587 30.7371 199.531 32.4867 201.669 32.4867H319.67C327.057 32.4867 333.084 38.5131 333.084 45.9003C333.084 53.2875 327.057 59.3139 319.67 59.3139H201.669C199.336 59.3139 197.587 61.2579 197.587 63.3963ZM224.997 113.746V86.9187H319.67C327.057 86.9187 333.084 92.9451 333.084 100.332C333.084 107.72 327.057 113.746 319.67 113.746H224.997Z" fill="#F5FAF7"/>
    <path d="M564.777 135.13L506.263 22.1835C500.237 10.5195 488.961 2.16033 475.937 0.993929C460.385 -0.366871 446.193 7.60353 439.195 21.2115L380.097 135.13C378.737 137.852 380.681 141.156 383.791 141.156H405.564C407.119 141.156 408.48 140.379 409.257 139.018L463.495 33.8475C466.022 28.9875 470.688 28.4043 472.437 28.4043C474.187 28.4043 478.853 28.9875 481.38 33.8475L535.617 139.018C536.395 140.379 537.756 141.156 539.311 141.156H561.084C564.194 141.156 566.138 137.852 564.777 135.13Z" fill="#F5FAF7"/>
    </svg>
    